<?xml version="1.0" encoding="UTF-8" standalone="no"?><svg xmlns="http://www.w3.org/2000/svg" xmlns:xlink="http://www.w3.org/1999/xlink" contentScriptType="application/ecmascript" contentStyleType="text/css" height="650px" preserveAspectRatio="none" style="width:515px;height:650px;" version="1.1" viewBox="0 0 515 650" width="515px" zoomAndPan="magnify"><defs><filter height="300%" id="f1mb3r84ulu5nm" width="300%" x="-1" y="-1"><feGaussianBlur result="blurOut" stdDeviation="2.0"/><feColorMatrix in="blurOut" result="blurOut2" type="matrix" values="0 0 0 0 0 0 0 0 0 0 0 0 0 0 0 0 0 0 .4 0"/><feOffset dx="4.0" dy="4.0" in="blurOut2" result="blurOut3"/><feBlend in="SourceGraphic" in2="blurOut3" mode="normal"/></filter></defs><g><ellipse cx="248.75" cy="20" fill="#000000" filter="url(#f1mb3r84ulu5nm)" rx="10" ry="10" style="stroke: none; stroke-width: 1.0;"/><polygon fill="#FEFECE" filter="url(#f1mb3r84ulu5nm)" points="219.75,50,277.75,50,289.75,62,277.75,74,219.75,74,207.75,62,219.75,50" style="stroke: #A80036; stroke-width: 1.5;"/><text fill="#000000" font-family="sans-serif" font-size="11" lengthAdjust="spacingAndGlyphs" textLength="58" x="219.75" y="66.501">what to test</text><text fill="#000000" font-family="sans-serif" font-size="11" lengthAdjust="spacingAndGlyphs" textLength="27" x="180.75" y="59.583">string</text><text fill="#000000" font-family="sans-serif" font-size="11" lengthAdjust="spacingAndGlyphs" textLength="36" x="289.75" y="59.583">number</text><rect fill="#FFFFFF" filter="url(#f1mb3r84ulu5nm)" height="370.8203" style="stroke: #000000; stroke-width: 2.0;" width="231" x="10" y="84"/><path d="M123,85 L123,94.6094 L113,104.6094 L10,104.6094 " fill="none" style="stroke: #000000; stroke-width: 2.0;"/><text fill="#000000" font-family="sans-serif" font-size="14" lengthAdjust="spacingAndGlyphs" textLength="103" x="13" y="99.5332">stringBlankTest{</text><path d="M79,121.6094 L74,139.1563 L79,156.7031 M151,121.6094 L156,139.1563 L151,156.7031 " fill="#FEFECE" filter="url(#f1mb3r84ulu5nm)" style="stroke: #A80036; stroke-width: 1.5;"/><text fill="#000000" font-family="sans-serif" font-size="12" lengthAdjust="spacingAndGlyphs" textLength="62" x="84" y="144.0664">String input</text><path d="M45,176.7031 L40,194.25 L45,211.7969 M185,176.7031 L190,194.25 L185,211.7969 " fill="#FEFECE" filter="url(#f1mb3r84ulu5nm)" style="stroke: #A80036; stroke-width: 1.5;"/><text fill="#000000" font-family="sans-serif" font-size="12" lengthAdjust="spacingAndGlyphs" textLength="130" x="50" y="199.1602">boolean fullString = true</text><path d="M66,280.7148 L61,298.2617 L66,315.8086 M164,280.7148 L169,298.2617 L164,315.8086 " fill="#FEFECE" filter="url(#f1mb3r84ulu5nm)" style="stroke: #A80036; stroke-width: 1.5;"/><text fill="#000000" font-family="sans-serif" font-size="12" lengthAdjust="spacingAndGlyphs" textLength="88" x="71" y="303.1719">fullString = false</text><polygon fill="#FEFECE" filter="url(#f1mb3r84ulu5nm)" points="32,231.7969,198,231.7969,210,243.7969,198,255.7969,32,255.7969,20,243.7969,32,231.7969" style="stroke: #A80036; stroke-width: 1.5;"/><text fill="#000000" font-family="sans-serif" font-size="11" lengthAdjust="spacingAndGlyphs" textLength="19" x="119" y="267.2158">true</text><text fill="#000000" font-family="sans-serif" font-size="11" lengthAdjust="spacingAndGlyphs" textLength="166" x="32" y="248.2979">input == null || input.trim().isEmpty()</text><text fill="#000000" font-family="sans-serif" font-size="11" lengthAdjust="spacingAndGlyphs" textLength="24" x="210" y="241.3799">false</text><polygon fill="#FEFECE" filter="url(#f1mb3r84ulu5nm)" points="115,340.7266,127,352.7266,115,364.7266,103,352.7266,115,340.7266" style="stroke: #A80036; stroke-width: 1.5;"/><rect fill="#FEFECE" filter="url(#f1mb3r84ulu5nm)" height="35.0938" style="stroke: #A80036; stroke-width: 1.5;" width="103" x="63.5" y="399.7266"/><text fill="#000000" font-family="sans-serif" font-size="12" lengthAdjust="spacingAndGlyphs" textLength="83" x="73.5" y="422.1836">return fullString</text><rect fill="#FFFFFF" filter="url(#f1mb3r84ulu5nm)" height="483.0898" style="stroke: #000000; stroke-width: 2.0;" width="243" x="261" y="84"/><path d="M413,85 L413,94.6094 L403,104.6094 L261,104.6094 " fill="none" style="stroke: #000000; stroke-width: 2.0;"/><text fill="#000000" font-family="sans-serif" font-size="14" lengthAdjust="spacingAndGlyphs" textLength="142" x="264" y="99.5332">numberNoLettersTest{</text><path d="M346.5,121.6094 L341.5,139.1563 L346.5,156.7031 M418.5,121.6094 L423.5,139.1563 L418.5,156.7031 " fill="#FEFECE" filter="url(#f1mb3r84ulu5nm)" style="stroke: #A80036; stroke-width: 1.5;"/><text fill="#000000" font-family="sans-serif" font-size="12" lengthAdjust="spacingAndGlyphs" textLength="62" x="351.5" y="144.0664">String input</text><path d="M301.5,176.7031 L296.5,194.25 L301.5,211.7969 M463.5,176.7031 L468.5,194.25 L463.5,211.7969 " fill="#FEFECE" filter="url(#f1mb3r84ulu5nm)" style="stroke: #A80036; stroke-width: 1.5;"/><text fill="#000000" font-family="sans-serif" font-size="12" lengthAdjust="spacingAndGlyphs" textLength="152" x="306.5" y="199.1602">boolean validNumber = true</text><path d="M344.5,231.7969 L339.5,249.3438 L344.5,266.8906 M420.5,231.7969 L425.5,249.3438 L420.5,266.8906 " fill="#FEFECE" filter="url(#f1mb3r84ulu5nm)" style="stroke: #A80036; stroke-width: 1.5;"/><text fill="#000000" font-family="sans-serif" font-size="12" lengthAdjust="spacingAndGlyphs" textLength="66" x="349.5" y="254.2539">double num</text><rect fill="#FEFECE" filter="url(#f1mb3r84ulu5nm)" height="35.0938" style="stroke: #A80036; stroke-width: 1.5;" width="223" x="271" y="301.8906"/><text fill="#000000" font-family="sans-serif" font-size="12" lengthAdjust="spacingAndGlyphs" textLength="203" x="281" y="324.3477">try num = Double.parseDouble(input)</text><rect fill="#FEFECE" filter="url(#f1mb3r84ulu5nm)" height="35.0938" style="stroke: #A80036; stroke-width: 1.5;" width="130" x="317.5" y="420.9023"/><text fill="#000000" font-family="sans-serif" font-size="12" lengthAdjust="spacingAndGlyphs" textLength="110" x="327.5" y="443.3594">validNumber = false</text><polygon fill="#FEFECE" filter="url(#f1mb3r84ulu5nm)" points="325,371.9844,440,371.9844,452,383.9844,440,395.9844,325,395.9844,313,383.9844,325,371.9844" style="stroke: #A80036; stroke-width: 1.5;"/><text fill="#000000" font-family="sans-serif" font-size="11" lengthAdjust="spacingAndGlyphs" textLength="19" x="386.5" y="407.4033">true</text><text fill="#000000" font-family="sans-serif" font-size="11" lengthAdjust="spacingAndGlyphs" textLength="115" x="325" y="388.4854">InputMismatchException</text><text fill="#000000" font-family="sans-serif" font-size="11" lengthAdjust="spacingAndGlyphs" textLength="24" x="452" y="381.5674">false</text><polygon fill="#FEFECE" filter="url(#f1mb3r84ulu5nm)" points="382.5,475.9961,394.5,487.9961,382.5,499.9961,370.5,487.9961,382.5,475.9961" style="stroke: #A80036; stroke-width: 1.5;"/><rect fill="#FEFECE" filter="url(#f1mb3r84ulu5nm)" height="35.0938" style="stroke: #A80036; stroke-width: 1.5;" width="125" x="320" y="519.9961"/><text fill="#000000" font-family="sans-serif" font-size="12" lengthAdjust="spacingAndGlyphs" textLength="105" x="330" y="542.4531">return validNumber</text><polygon fill="#FEFECE" filter="url(#f1mb3r84ulu5nm)" points="248.75,573.0898,260.75,585.0898,248.75,597.0898,236.75,585.0898,248.75,573.0898" style="stroke: #A80036; stroke-width: 1.5;"/><ellipse cx="248.75" cy="628.0898" fill="#FFFFFF" filter="url(#f1mb3r84ulu5nm)" rx="11" ry="11" style="stroke: #000000; stroke-width: 1.0;"/><ellipse cx="248.75" cy="628.0898" fill="#000000" rx="6" ry="6" style="stroke: #7F7F7F; stroke-width: 1.0;"/><line style="stroke: #A80036; stroke-width: 1.5;" x1="115" x2="115" y1="156.7031" y2="176.7031"/><polygon fill="#A80036" points="111,166.7031,115,176.7031,119,166.7031,115,170.7031" style="stroke: #A80036; stroke-width: 1.0;"/><line style="stroke: #A80036; stroke-width: 1.5;" x1="115" x2="115" y1="255.7969" y2="280.7148"/><polygon fill="#A80036" points="111,270.7148,115,280.7148,119,270.7148,115,274.7148" style="stroke: #A80036; stroke-width: 1.0;"/><line style="stroke: #A80036; stroke-width: 1.5;" x1="210" x2="222" y1="243.7969" y2="243.7969"/><polygon fill="#A80036" points="218,288.2617,222,298.2617,226,288.2617,222,292.2617" style="stroke: #A80036; stroke-width: 1.5;"/><line style="stroke: #A80036; stroke-width: 1.5;" x1="222" x2="222" y1="243.7969" y2="352.7266"/><line style="stroke: #A80036; stroke-width: 1.5;" x1="222" x2="127" y1="352.7266" y2="352.7266"/><polygon fill="#A80036" points="137,348.7266,127,352.7266,137,356.7266,133,352.7266" style="stroke: #A80036; stroke-width: 1.0;"/><line style="stroke: #A80036; stroke-width: 1.5;" x1="115" x2="115" y1="315.8086" y2="340.7266"/><polygon fill="#A80036" points="111,330.7266,115,340.7266,119,330.7266,115,334.7266" style="stroke: #A80036; stroke-width: 1.0;"/><line style="stroke: #A80036; stroke-width: 1.5;" x1="115" x2="115" y1="211.7969" y2="231.7969"/><polygon fill="#A80036" points="111,221.7969,115,231.7969,119,221.7969,115,225.7969" style="stroke: #A80036; stroke-width: 1.0;"/><line style="stroke: #A80036; stroke-width: 1.5;" x1="115" x2="115" y1="364.7266" y2="399.7266"/><polygon fill="#A80036" points="111,389.7266,115,399.7266,119,389.7266,115,393.7266" style="stroke: #A80036; stroke-width: 1.0;"/><line style="stroke: #A80036; stroke-width: 1.5;" x1="382.5" x2="382.5" y1="156.7031" y2="176.7031"/><polygon fill="#A80036" points="378.5,166.7031,382.5,176.7031,386.5,166.7031,382.5,170.7031" style="stroke: #A80036; stroke-width: 1.0;"/><line style="stroke: #A80036; stroke-width: 1.5;" x1="382.5" x2="382.5" y1="211.7969" y2="231.7969"/><polygon fill="#A80036" points="378.5,221.7969,382.5,231.7969,386.5,221.7969,382.5,225.7969" style="stroke: #A80036; stroke-width: 1.0;"/><line style="stroke: #A80036; stroke-width: 1.5;" x1="382.5" x2="382.5" y1="266.8906" y2="301.8906"/><polygon fill="#A80036" points="378.5,291.8906,382.5,301.8906,386.5,291.8906,382.5,295.8906" style="stroke: #A80036; stroke-width: 1.0;"/><line style="stroke: #A80036; stroke-width: 1.5;" x1="382.5" x2="382.5" y1="395.9844" y2="420.9023"/><polygon fill="#A80036" points="378.5,410.9023,382.5,420.9023,386.5,410.9023,382.5,414.9023" style="stroke: #A80036; stroke-width: 1.0;"/><line style="stroke: #A80036; stroke-width: 1.5;" x1="452" x2="464" y1="383.9844" y2="383.9844"/><polygon fill="#A80036" points="460,428.4492,464,438.4492,468,428.4492,464,432.4492" style="stroke: #A80036; stroke-width: 1.5;"/><line style="stroke: #A80036; stroke-width: 1.5;" x1="464" x2="464" y1="383.9844" y2="487.9961"/><line style="stroke: #A80036; stroke-width: 1.5;" x1="464" x2="394.5" y1="487.9961" y2="487.9961"/><polygon fill="#A80036" points="404.5,483.9961,394.5,487.9961,404.5,491.9961,400.5,487.9961" style="stroke: #A80036; stroke-width: 1.0;"/><line style="stroke: #A80036; stroke-width: 1.5;" x1="382.5" x2="382.5" y1="455.9961" y2="475.9961"/><polygon fill="#A80036" points="378.5,465.9961,382.5,475.9961,386.5,465.9961,382.5,469.9961" style="stroke: #A80036; stroke-width: 1.0;"/><line style="stroke: #A80036; stroke-width: 1.5;" x1="382.5" x2="382.5" y1="336.9844" y2="371.9844"/><polygon fill="#A80036" points="378.5,361.9844,382.5,371.9844,386.5,361.9844,382.5,365.9844" style="stroke: #A80036; stroke-width: 1.0;"/><line style="stroke: #A80036; stroke-width: 1.5;" x1="382.5" x2="382.5" y1="499.9961" y2="519.9961"/><polygon fill="#A80036" points="378.5,509.9961,382.5,519.9961,386.5,509.9961,382.5,513.9961" style="stroke: #A80036; stroke-width: 1.0;"/><line style="stroke: #A80036; stroke-width: 1.5;" x1="207.75" x2="115" y1="62" y2="62"/><line style="stroke: #A80036; stroke-width: 1.5;" x1="115" x2="115" y1="62" y2="121.6094"/><polygon fill="#A80036" points="111,111.6094,115,121.6094,119,111.6094,115,115.6094" style="stroke: #A80036; stroke-width: 1.0;"/><line style="stroke: #A80036; stroke-width: 1.5;" x1="289.75" x2="382.5" y1="62" y2="62"/><line style="stroke: #A80036; stroke-width: 1.5;" x1="382.5" x2="382.5" y1="62" y2="121.6094"/><polygon fill="#A80036" points="378.5,111.6094,382.5,121.6094,386.5,111.6094,382.5,115.6094" style="stroke: #A80036; stroke-width: 1.0;"/><line style="stroke: #A80036; stroke-width: 1.5;" x1="115" x2="115" y1="434.8203" y2="585.0898"/><line style="stroke: #A80036; stroke-width: 1.5;" x1="115" x2="236.75" y1="585.0898" y2="585.0898"/><polygon fill="#A80036" points="226.75,581.0898,236.75,585.0898,226.75,589.0898,230.75,585.0898" style="stroke: #A80036; stroke-width: 1.0;"/><line style="stroke: #A80036; stroke-width: 1.5;" x1="382.5" x2="382.5" y1="555.0898" y2="585.0898"/><line style="stroke: #A80036; stroke-width: 1.5;" x1="382.5" x2="260.75" y1="585.0898" y2="585.0898"/><polygon fill="#A80036" points="270.75,581.0898,260.75,585.0898,270.75,589.0898,266.75,585.0898" style="stroke: #A80036; stroke-width: 1.0;"/><line style="stroke: #A80036; stroke-width: 1.5;" x1="248.75" x2="248.75" y1="30" y2="50"/><polygon fill="#A80036" points="244.75,40,248.75,50,252.75,40,248.75,44" style="stroke: #A80036; stroke-width: 1.0;"/><line style="stroke: #A80036; stroke-width: 1.5;" x1="248.75" x2="248.75" y1="597.0898" y2="617.0898"/><polygon fill="#A80036" points="244.75,607.0898,248.75,617.0898,252.75,607.0898,248.75,611.0898" style="stroke: #A80036; stroke-width: 1.0;"/><!--
@startuml

start

    if(what to test) then (string)

        partition stringBlankTest{
            
            :String input}
            :boolean fullString = true}

            if(input == null || input.trim().isEmpty()) then (true)

                :fullString = false}

            else (false)

            endif

            :return fullString]
        }

    else(number)

        partition numberNoLettersTest{
            
            :String input}
            :boolean validNumber = true}
            :double num}

            :try num = Double.parseDouble(input)]
            if(InputMismatchException) then (true)
                :validNumber = false]
            else(false)
                
            endif

            :return validNumber]
        }

    endif

stop
@enduml

PlantUML version 1.2019.09(Tue Aug 27 00:19:51 SGT 2019)
(GPL source distribution)
Java Runtime: OpenJDK Runtime Environment
JVM: OpenJDK 64-Bit Server VM
Java Version: 11.0.5+10
Operating System: Windows 10
OS Version: 10.0
Default Encoding: Cp1252
Language: en
Country: US
--></g></svg>